<mxfile host="app.diagrams.net" modified="2024-02-27T19:38:39.594Z" agent="Mozilla/5.0 (Windows NT 10.0; Win64; x64) AppleWebKit/537.36 (KHTML, like Gecko) Chrome/121.0.0.0 Safari/537.36" etag="UHAAxmYtVXakx5pULG5w" version="23.1.7" type="github">
  <diagram name="Página-1" id="avC786zAL0bjuAzoOXUr">
    <mxGraphModel dx="1434" dy="790" grid="1" gridSize="10" guides="1" tooltips="1" connect="1" arrows="1" fold="1" page="1" pageScale="1" pageWidth="827" pageHeight="1169" math="0" shadow="0">
      <root>
        <mxCell id="0" />
        <mxCell id="1" parent="0" />
        <mxCell id="HZizeV8N1P3aB0Bjn3fT-1" value="Príncipe" style="shape=umlActor;verticalLabelPosition=bottom;verticalAlign=top;html=1;outlineConnect=0;" vertex="1" parent="1">
          <mxGeometry x="174" y="555" width="30" height="60" as="geometry" />
        </mxCell>
        <mxCell id="HZizeV8N1P3aB0Bjn3fT-2" value="Bruxa" style="shape=umlActor;html=1;verticalLabelPosition=bottom;verticalAlign=top;align=center;" vertex="1" parent="1">
          <mxGeometry x="624" y="444" width="30" height="60" as="geometry" />
        </mxCell>
        <mxCell id="HZizeV8N1P3aB0Bjn3fT-3" value="Anão" style="shape=umlActor;html=1;verticalLabelPosition=bottom;verticalAlign=top;align=center;" vertex="1" parent="1">
          <mxGeometry x="624" y="665" width="30" height="60" as="geometry" />
        </mxCell>
        <mxCell id="HZizeV8N1P3aB0Bjn3fT-4" value="Atacar o Dragão" style="ellipse;whiteSpace=wrap;html=1;" vertex="1" parent="1">
          <mxGeometry x="334" y="415" width="140" height="70" as="geometry" />
        </mxCell>
        <mxCell id="HZizeV8N1P3aB0Bjn3fT-5" value="Preparar Poções" style="ellipse;whiteSpace=wrap;html=1;" vertex="1" parent="1">
          <mxGeometry x="334" y="504" width="140" height="70" as="geometry" />
        </mxCell>
        <mxCell id="HZizeV8N1P3aB0Bjn3fT-6" value="Explorar o Castelo" style="ellipse;whiteSpace=wrap;html=1;" vertex="1" parent="1">
          <mxGeometry x="334" y="595" width="140" height="70" as="geometry" />
        </mxCell>
        <mxCell id="HZizeV8N1P3aB0Bjn3fT-7" value="Proteger o Reino" style="ellipse;whiteSpace=wrap;html=1;" vertex="1" parent="1">
          <mxGeometry x="334" y="685" width="140" height="70" as="geometry" />
        </mxCell>
        <mxCell id="HZizeV8N1P3aB0Bjn3fT-8" value="" style="edgeStyle=elbowEdgeStyle;html=1;endArrow=block;endFill=0;endSize=12;verticalAlign=bottom;rounded=0;entryX=0;entryY=0.5;entryDx=0;entryDy=0;exitX=0.5;exitY=0.5;exitDx=0;exitDy=0;exitPerimeter=0;" edge="1" parent="1" source="HZizeV8N1P3aB0Bjn3fT-1" target="HZizeV8N1P3aB0Bjn3fT-4">
          <mxGeometry width="160" relative="1" as="geometry">
            <mxPoint x="254" y="490" as="sourcePoint" />
            <mxPoint x="474" y="490" as="targetPoint" />
          </mxGeometry>
        </mxCell>
        <mxCell id="HZizeV8N1P3aB0Bjn3fT-9" value="" style="edgeStyle=elbowEdgeStyle;html=1;endArrow=block;endFill=0;endSize=12;verticalAlign=bottom;rounded=0;exitX=0.5;exitY=0.5;exitDx=0;exitDy=0;exitPerimeter=0;entryX=0;entryY=0.5;entryDx=0;entryDy=0;" edge="1" parent="1" source="HZizeV8N1P3aB0Bjn3fT-1" target="HZizeV8N1P3aB0Bjn3fT-6">
          <mxGeometry width="160" relative="1" as="geometry">
            <mxPoint x="544" y="490" as="sourcePoint" />
            <mxPoint x="704" y="490" as="targetPoint" />
          </mxGeometry>
        </mxCell>
        <mxCell id="HZizeV8N1P3aB0Bjn3fT-10" value="" style="edgeStyle=elbowEdgeStyle;html=1;endArrow=block;endFill=0;endSize=12;verticalAlign=bottom;rounded=0;exitX=0.5;exitY=0.5;exitDx=0;exitDy=0;exitPerimeter=0;entryX=0;entryY=0.5;entryDx=0;entryDy=0;" edge="1" parent="1" source="HZizeV8N1P3aB0Bjn3fT-1" target="HZizeV8N1P3aB0Bjn3fT-7">
          <mxGeometry width="160" relative="1" as="geometry">
            <mxPoint x="264" y="650" as="sourcePoint" />
            <mxPoint x="424" y="650" as="targetPoint" />
          </mxGeometry>
        </mxCell>
        <mxCell id="HZizeV8N1P3aB0Bjn3fT-11" value="" style="edgeStyle=elbowEdgeStyle;html=1;endArrow=block;endFill=0;endSize=12;verticalAlign=bottom;rounded=0;exitX=0.5;exitY=0.5;exitDx=0;exitDy=0;exitPerimeter=0;entryX=1;entryY=0.5;entryDx=0;entryDy=0;" edge="1" parent="1" source="HZizeV8N1P3aB0Bjn3fT-2" target="HZizeV8N1P3aB0Bjn3fT-5">
          <mxGeometry width="160" relative="1" as="geometry">
            <mxPoint x="559" y="595" as="sourcePoint" />
            <mxPoint x="719" y="595" as="targetPoint" />
          </mxGeometry>
        </mxCell>
        <mxCell id="HZizeV8N1P3aB0Bjn3fT-12" value="" style="edgeStyle=elbowEdgeStyle;html=1;endArrow=block;endFill=0;endSize=12;verticalAlign=bottom;rounded=0;exitX=0.5;exitY=0.5;exitDx=0;exitDy=0;exitPerimeter=0;entryX=1;entryY=0.5;entryDx=0;entryDy=0;" edge="1" parent="1" source="HZizeV8N1P3aB0Bjn3fT-3" target="HZizeV8N1P3aB0Bjn3fT-6">
          <mxGeometry width="160" relative="1" as="geometry">
            <mxPoint x="484" y="790" as="sourcePoint" />
            <mxPoint x="644" y="790" as="targetPoint" />
          </mxGeometry>
        </mxCell>
        <mxCell id="HZizeV8N1P3aB0Bjn3fT-13" value="Dragão" style="shape=umlActor;html=1;verticalLabelPosition=bottom;verticalAlign=top;align=center;" vertex="1" parent="1">
          <mxGeometry x="334" y="900" width="30" height="60" as="geometry" />
        </mxCell>
        <mxCell id="HZizeV8N1P3aB0Bjn3fT-14" value="Destruir o Reino" style="ellipse;whiteSpace=wrap;html=1;" vertex="1" parent="1">
          <mxGeometry x="334" y="780" width="140" height="70" as="geometry" />
        </mxCell>
        <mxCell id="HZizeV8N1P3aB0Bjn3fT-15" value="" style="edgeStyle=orthogonalEdgeStyle;html=1;endArrow=block;endFill=0;endSize=12;verticalAlign=bottom;rounded=0;exitX=0.5;exitY=0.5;exitDx=0;exitDy=0;exitPerimeter=0;entryX=0.5;entryY=1;entryDx=0;entryDy=0;" edge="1" parent="1" source="HZizeV8N1P3aB0Bjn3fT-13" target="HZizeV8N1P3aB0Bjn3fT-14">
          <mxGeometry width="160" relative="1" as="geometry">
            <mxPoint x="464" y="960" as="sourcePoint" />
            <mxPoint x="624" y="960" as="targetPoint" />
            <Array as="points">
              <mxPoint x="404" y="930" />
            </Array>
          </mxGeometry>
        </mxCell>
        <mxCell id="HZizeV8N1P3aB0Bjn3fT-16" value="" style="edgeStyle=elbowEdgeStyle;html=1;endArrow=block;endFill=0;endSize=12;verticalAlign=bottom;rounded=0;exitX=0.5;exitY=0.5;exitDx=0;exitDy=0;exitPerimeter=0;entryX=0;entryY=0.5;entryDx=0;entryDy=0;" edge="1" parent="1" source="HZizeV8N1P3aB0Bjn3fT-1" target="HZizeV8N1P3aB0Bjn3fT-5">
          <mxGeometry width="160" relative="1" as="geometry">
            <mxPoint x="330" y="640" as="sourcePoint" />
            <mxPoint x="490" y="640" as="targetPoint" />
          </mxGeometry>
        </mxCell>
        <mxCell id="HZizeV8N1P3aB0Bjn3fT-17" value="Atacar com Magia" style="ellipse;whiteSpace=wrap;html=1;" vertex="1" parent="1">
          <mxGeometry x="229" y="310" width="140" height="70" as="geometry" />
        </mxCell>
        <mxCell id="HZizeV8N1P3aB0Bjn3fT-18" value="Atacar com Espada" style="ellipse;whiteSpace=wrap;html=1;" vertex="1" parent="1">
          <mxGeometry x="439" y="310" width="140" height="70" as="geometry" />
        </mxCell>
        <mxCell id="HZizeV8N1P3aB0Bjn3fT-19" value="" style="edgeStyle=none;html=1;endArrow=block;endFill=0;endSize=12;verticalAlign=bottom;rounded=0;exitX=0.5;exitY=0;exitDx=0;exitDy=0;entryX=1;entryY=0.5;entryDx=0;entryDy=0;" edge="1" parent="1" source="HZizeV8N1P3aB0Bjn3fT-4" target="HZizeV8N1P3aB0Bjn3fT-17">
          <mxGeometry width="160" relative="1" as="geometry">
            <mxPoint x="330" y="440" as="sourcePoint" />
            <mxPoint x="490" y="440" as="targetPoint" />
          </mxGeometry>
        </mxCell>
        <mxCell id="HZizeV8N1P3aB0Bjn3fT-20" value="" style="edgeStyle=none;html=1;endArrow=block;endFill=0;endSize=12;verticalAlign=bottom;rounded=0;exitX=0.5;exitY=0;exitDx=0;exitDy=0;entryX=0;entryY=0.5;entryDx=0;entryDy=0;" edge="1" parent="1" source="HZizeV8N1P3aB0Bjn3fT-4" target="HZizeV8N1P3aB0Bjn3fT-18">
          <mxGeometry width="160" relative="1" as="geometry">
            <mxPoint x="330" y="440" as="sourcePoint" />
            <mxPoint x="490" y="440" as="targetPoint" />
          </mxGeometry>
        </mxCell>
      </root>
    </mxGraphModel>
  </diagram>
</mxfile>
